<?xml version="1.0" encoding="utf-8"?>
<!-- Generator: Adobe Illustrator 26.0.2, SVG Export Plug-In . SVG Version: 6.00 Build 0)  -->
<svg version="1.1" id="Layer_1" xmlns="http://www.w3.org/2000/svg" xmlns:xlink="http://www.w3.org/1999/xlink" x="0px" y="0px"
	 viewBox="0 0 555 775" style="enable-background:new 0 0 555 775;" xml:space="preserve">
<style type="text/css">
	.st0{fill:#7D3018;}
</style>
<g>
	<g>
		<path class="st0" d="M162.5,154.9c1.5-9,5.2-13,12.9-14.6v0c-8.1-1.6-11.6-5.9-13-15.8c-1.4,10-4.9,14.2-13,15.8v0
			C157.2,141.9,160.9,146,162.5,154.9z"/>
		<path class="st0" d="M393.2,154.9c1.5-9,5.2-13,12.9-14.6v0c-8.1-1.6-11.6-5.9-13-15.8c-1.4,10-4.9,14.2-13,15.8v0
			C387.9,141.9,391.6,146,393.2,154.9z"/>
		<path class="st0" d="M277.5,85.3c1.5-9,5.2-13,12.9-14.6v0c-8.1-1.6-11.6-5.9-13-15.8c-1.4,10-4.9,14.2-13,15.8v0
			C272.2,72.3,276,76.4,277.5,85.3z"/>
		<path class="st0" d="M432.4,270.2c-10.2-11.2-22.1-20.2-35.2-26.6c9.6-12.5,16.6-27,20.5-42.5c0.4-1.5-0.5-2.9-1.9-3.4
			c-18-5.8-37-7-55.4-3.9c3.9-19.2,3-39.3-2.8-58.3c-0.4-1.4-1.9-2.3-3.4-1.9c-17.1,4.1-32.7,11.8-46,22.4
			c-6.3-16.1-16.2-30.9-29-43c-1.1-1-2.8-1-3.9,0c-12.8,12.1-22.7,26.8-29,43c-13.3-10.6-28.9-18.3-46-22.4
			c-1.5-0.4-2.9,0.5-3.4,1.9c-5.9,19-6.7,39.1-2.8,58.3c-18.4-3.1-37.4-1.8-55.4,3.9c-1.4,0.5-2.2,1.9-1.9,3.4
			c3.9,15.6,11,30,20.6,42.6c-13.2,6.5-25.2,15.5-35.3,26.5c-1,1.1-1,2.8,0.1,3.9c22.5,23,52.4,35.6,84.5,35.6c0.7,0,1.5,0,2.2,0
			c24.2-0.4,47.1-8.1,66.6-22.1c0.5-0.1,1.1-0.2,1.6-0.3c0.6,0.1,1.1,0.2,1.7,0.4c19.5,14,42.4,21.6,66.6,22c0.7,0,1.5,0,2.2,0
			c32.1,0,62-12.6,84.5-35.6C433.4,273,433.4,271.3,432.4,270.2z M359.2,199.6c17.2-3.3,35.1-2.4,52.4,2.7
			c-4,14.2-10.7,27.4-19.6,38.9c-14-6-29.1-9.4-44.9-9.7c-0.4,0-0.8,0-1.3,0c0.6-0.9,1.1-1.9,1.7-2.9
			C352.7,219.4,356.6,209.6,359.2,199.6z M353.1,139.7c5.1,18.1,5.5,37.1,1.4,55.2c-11,2.4-21.8,6.5-31.8,12
			c-2.3,1.3-4.5,2.6-6.8,4.1c0.4-4,0.6-8,0.6-12c0-12.8-2.1-25.4-6.1-37.4C322.7,151.4,337.2,143.9,353.1,139.7z M277.4,119
			c11.9,11.7,20.8,25.6,26.5,40.7c-9.6,8.5-17.8,18.6-24.4,30.1c-0.7,1.3-1.4,2.6-2.1,3.9c-0.7-1.3-1.4-2.5-2.1-3.9
			c-6.6-11.5-14.8-21.6-24.3-30.1C256.6,144.5,265.5,130.7,277.4,119z M201.8,139.7c15.9,4.2,30.4,11.7,42.7,21.9
			c-4,12-6.1,24.6-6.1,37.4c0,4,0.2,8,0.6,12c-2.2-1.4-4.5-2.8-6.8-4.1c-10-5.6-20.8-9.6-31.8-12
			C196.3,176.8,196.7,157.7,201.8,139.7z M143.3,202.3c17.3-5.1,35.2-6,52.4-2.7c2.6,10,6.5,19.8,11.7,28.9c0.6,1,1.2,2,1.7,2.9
			c-0.4,0-0.9,0-1.4,0c-15.5,0.3-30.7,3.7-44.8,9.8C154,229.7,147.2,216.5,143.3,202.3z M209.1,304c-30.4,0.5-58.9-10.8-80.6-32
			c9.5-9.9,20.6-18,32.9-23.8c9.1,10.9,20.3,20.1,32.9,27.1c17.7,9.8,37.4,14.9,57.3,14.9c3.5,0,7.1-0.2,10.6-0.5
			C246,298.7,227.9,303.7,209.1,304z M197,270.3c-11.5-6.4-21.7-14.8-30.2-24.6c12.9-5.4,26.9-8.4,41.1-8.7c2.6,0,4.6,0,6.4,0.1
			c1.1,0,2.1-0.5,2.6-1.5s0.5-2.1-0.1-3c-1.4-2.1-2.8-4.4-4.4-7c-4.5-7.9-7.9-16.2-10.4-24.8c9.5,2.4,18.7,6,27.5,10.9
			c3.6,2,7.1,4.2,10.5,6.6c0.1,0.5,0.2,1,0.3,1.5c0.1,0.7,0.2,1.3,0.4,2c0.1,0.7,0.3,1.4,0.5,2.1c0.1,0.6,0.3,1.3,0.4,2
			c0.2,0.7,0.4,1.4,0.5,2.1c0.2,0.6,0.3,1.3,0.5,1.9c0.2,0.7,0.4,1.4,0.6,2.1c0.2,0.6,0.4,1.2,0.5,1.9c0.2,0.7,0.5,1.4,0.7,2.1
			c0.2,0.6,0.4,1.2,0.6,1.8c0.2,0.7,0.5,1.4,0.8,2.1c0.2,0.6,0.4,1.2,0.7,1.8c0.3,0.7,0.6,1.4,0.9,2.1c0.2,0.6,0.5,1.2,0.7,1.8
			c0.3,0.7,0.6,1.4,0.9,2.1c0.3,0.6,0.5,1.1,0.8,1.7c0.3,0.7,0.7,1.4,1,2c0.3,0.5,0.5,1.1,0.8,1.7c0.3,0.7,0.7,1.4,1.1,2
			c0.3,0.5,0.6,1.1,0.9,1.6c0.4,0.7,0.8,1.4,1.2,2c0.3,0.5,0.6,1,0.9,1.5c0.4,0.7,0.8,1.4,1.3,2c0.3,0.5,0.6,1,1,1.5
			c0.5,0.7,0.9,1.4,1.4,2c0.3,0.5,0.6,0.9,1,1.4c0.5,0.7,1,1.4,1.5,2.1c0.3,0.4,0.6,0.9,1,1.3c0.6,0.8,1.2,1.5,1.8,2.2
			c0.3,0.4,0.6,0.7,0.8,1.1c0.9,1.1,1.8,2.1,2.7,3.2c0.7,0.8,1.4,1.6,2.1,2.3c0.2,0.2,0.4,0.5,0.6,0.7c0.5,0.6,1.1,1.2,1.7,1.7
			c0.1,0.1,0.3,0.3,0.4,0.4C247,287.5,220.2,283.2,197,270.3z M277.4,279c-1.8-1.8-3.6-3.6-5.2-5.5c-5.2-5.9-9.8-12.3-13.6-19
			c-5.3-9.4-9.3-19.5-11.8-30.1c-0.6-2.6-1.1-5.2-1.5-7.9l0,0l0,0c-0.9-5.7-1.4-11.6-1.4-17.5c0-11.5,1.7-22.8,5-33.4
			c8.4,7.7,15.6,16.8,21.4,27.1c1.7,3,3.2,5.9,4.5,8.7c0.5,1,1.5,1.6,2.6,1.6c0,0,0,0,0,0c1.1,0,2.1-0.6,2.6-1.7
			c1.3-2.8,2.8-5.7,4.4-8.7c5.8-10.2,13.1-19.3,21.4-27.1c3.3,10.6,5,21.9,5,33.4c0,5.9-0.5,11.8-1.4,17.5
			c-3.3,21.2-12.6,41-26.9,57.1C280.9,275.4,279.2,277.2,277.4,279z M282.4,282c0.5-0.5,1.1-1.1,1.6-1.6c0.2-0.2,0.5-0.5,0.7-0.7
			c0.7-0.8,1.5-1.6,2.2-2.4c0.9-1,1.8-2.1,2.7-3.2c0.3-0.4,0.6-0.7,0.8-1.1c0.6-0.7,1.2-1.5,1.8-2.2c0.3-0.4,0.6-0.9,1-1.3
			c0.5-0.7,1-1.4,1.5-2.1c0.3-0.5,0.7-0.9,1-1.4c0.5-0.7,0.9-1.3,1.4-2c0.3-0.5,0.6-1,1-1.5c0.4-0.7,0.9-1.3,1.3-2
			c0.3-0.5,0.6-1,0.9-1.6c0.4-0.7,0.8-1.3,1.2-2c0.3-0.5,0.6-1.1,0.9-1.6c0.4-0.7,0.7-1.3,1.1-2c0.3-0.6,0.6-1.1,0.8-1.7
			c0.3-0.7,0.7-1.4,1-2c0.3-0.6,0.5-1.2,0.8-1.7c0.3-0.7,0.6-1.4,0.9-2c0.3-0.6,0.5-1.2,0.7-1.8c0.3-0.7,0.6-1.4,0.8-2
			c0.2-0.6,0.5-1.2,0.7-1.8c0.2-0.7,0.5-1.4,0.8-2.1c0.2-0.6,0.4-1.2,0.6-1.9c0.2-0.7,0.5-1.4,0.7-2.1c0.2-0.6,0.4-1.3,0.6-1.9
			c0.2-0.7,0.4-1.4,0.6-2.1c0.2-0.6,0.3-1.3,0.5-1.9c0.2-0.7,0.4-1.4,0.5-2.1c0.2-0.6,0.3-1.3,0.4-1.9c0.2-0.7,0.3-1.4,0.5-2.1
			c0.1-0.6,0.2-1.3,0.4-2c0.1-0.5,0.2-1,0.3-1.6c3.4-2.4,6.9-4.6,10.5-6.6c8.8-4.9,18-8.5,27.5-10.9c-2.4,8.6-5.9,16.9-10.4,24.8
			c-1.5,2.7-3,5-4.4,7c-0.6,0.9-0.7,2-0.1,3c0.5,0.9,1.5,1.5,2.6,1.5c2.3-0.1,4.6-0.1,6.3-0.1c14.5,0.3,28.4,3.2,41.2,8.6
			c-8.5,9.8-18.8,18.2-30.3,24.6c-23.2,12.9-50,17.1-75.9,12.1C282.1,282.3,282.3,282.1,282.4,282z M345.8,304
			c-18.8-0.4-36.9-5.3-53-14.3c23.4,2.1,47-2.8,67.8-14.4c12.6-7,23.8-16.3,32.9-27.2c12.1,5.8,23.2,13.9,32.8,23.9
			C404.7,293.2,376.2,304.6,345.8,304z"/>
		<path class="st0" d="M296.8,323.6c-5.7-4.9-10.5-10.7-14.2-17.2c-1-1.8-1.8-3.4-2.6-5c-0.5-1-1.5-1.6-2.6-1.6c0,0,0,0,0,0
			c-1.1,0-2.1,0.6-2.6,1.7c-0.7,1.6-1.6,3.3-2.6,5c-3.7,6.6-8.5,12.4-14.2,17.2c-0.9,0.8-1.2,2-0.8,3.1c3.7,10.6,10,20.3,18.3,28
			c0.5,0.5,1.2,0.8,1.9,0.8s1.4-0.3,1.9-0.8c8.2-7.7,14.5-17.4,18.3-28C298,325.6,297.7,324.3,296.8,323.6z M277.4,348.6
			c-6.2-6.3-11-13.9-14.2-22.1c5.5-5,10.2-10.9,14-17.5c0.1-0.1,0.2-0.3,0.2-0.4c0.1,0.1,0.2,0.3,0.2,0.4c3.7,6.6,8.4,12.4,14,17.5
			C288.5,334.8,283.6,342.3,277.4,348.6z"/>
	</g>
	<g>
		<g>
			<path class="st0" d="M224.6,483.1l-2.9-3.8c5.6-4.2,36.1-17.1,50.1-17.9c4.7-0.3,12-0.4,20.6-0.5c15.9-0.3,35.6-0.6,43.2-2.2
				c3.3-0.7,6.8-1.2,10.3-1.8c5.5-0.9,13.7-2.2,15.2-3.6c0-1.3-0.6-4.5-3.1-7.6c-2.1-2.6-6-5.7-13.1-6.2c-4.1-0.3-10.5-0.5-18-0.7
				c-20.1-0.5-50.5-1.3-74.3-5.4c-17-2.9-32.9-12.1-46.9-20.1c-13.3-7.6-25.8-12.7-36.9-13.4c-9.8-0.7-28.5,7.5-41.5,12.5
				c-17.8,6.7-60.1,6.1-80.4,3.2l0.7-4.7c19.1,2.8,60.8,3.6,78-2.9c13.5-5.1,32.7-13.5,43.5-12.8c12.2,0.8,25.2,6.2,39,14.1
				c14.3,8.2,29.2,16.8,45.3,19.5c23.4,4,53.6,4.8,73.6,5.4c7.9,0.2,14.1,0.4,18.2,0.7c8.8,0.6,13.8,4.7,16.5,8
				c3.4,4.2,4.5,8.9,4.1,11.5c-0.6,4.2-6.7,5.3-19.2,7.4c-3.4,0.5-6.8,1.1-10.1,1.8c-8.1,1.7-27.2,2-44.1,2.3
				c-8.5,0.1-15.9,0.3-20.4,0.5C259.1,466.9,229.7,479.2,224.6,483.1z"/>
			<path class="st0" d="M246.5,525.6c-14-2-27.1-5.9-37.1-11.4c-66.4-35.9-108.3-35.2-127.9-29.8l-1.3-4.6c18.9-5.2,48-4.5,77.7,5.8
				c24.5,8.5,45.7,20,53.7,24.3c17,9.2,43.2,13.8,67,11.9c7.7-0.6,16.6-1.6,25.2-2.5c16.8-1.8,32.7-3.5,39.8-2.9
				c0.8,0.1,4.9-0.8,22.4-15c11.3-9.2,24.8-21,36.6-31.4c15.4-13.5,25-21.9,28.5-23.8c4.1-2.2,5.4-4.3,5.2-5.5
				c-0.2-0.9-1.2-1.6-2.7-1.8c-0.6-0.1-1.3-0.2-2.1-0.4c-6.7-1.2-22.2-4-35.9,6.2c-7,5.2-15.7,12.4-24.1,19.2
				c-10.7,8.8-20.9,17.1-26.2,20.3c-10,6.2-65.3,5.6-75.4,0.7c-10-4.9-16.8-15.8-17.1-16.3l4.1-2.5c0.1,0.1,6.3,10.3,15.1,14.5
				c8.5,4.1,62.4,4.8,70.8-0.4c5-3.1,15-11.3,25.6-20c8.5-6.9,17.2-14.1,24.3-19.4c15.3-11.4,32.3-8.4,39.6-7.1
				c0.8,0.1,1.4,0.3,2,0.3c3.6,0.5,6.2,2.8,6.7,5.7c0.3,1.8,0.2,6.3-7.6,10.5c-3.2,1.7-15,12.2-27.6,23.2
				c-11.9,10.5-25.4,22.3-36.8,31.6c-17.9,14.5-23,16.2-25.8,16c-6.6-0.6-23,1.2-38.8,2.9c-8.6,0.9-17.6,1.9-25.3,2.5
				C268.4,527.6,257.2,527.2,246.5,525.6z"/>
			<path class="st0" d="M280.3,434.8c-1.5-8.9-3.2-38,5.2-48.1c4.6-5.5,10.5-8.7,15.7-8.6c2.5,0.1,4.5,0.9,5.6,2.4
				c1.1,1.4,1.4,4.8,2.2,18.4c0.7,12,1.9,32,4.5,35.4l-3.8,2.9c-3.2-4.2-4.3-19.1-5.5-38c-0.4-6.6-0.8-14.1-1.3-15.9
				c-0.2-0.2-0.8-0.4-1.9-0.4c-2.9,0-7.5,1.8-11.8,6.8c-6.3,7.6-6.1,33.2-4.2,44.2L280.3,434.8z M302.9,383.1L302.9,383.1
				L302.9,383.1z"/>
			<path class="st0" d="M368,466.7l-4.2-2.2c6.8-13.1,13.5-36.6,15.7-54.6c1.2-10.2,1-20.5,0.9-28.7c-0.1-6.3-0.2-11.2,0.3-14.6
				c0.2-1.6-0.4-2-1.1-2.3c-2.7-0.9-8.5,1.2-12,7.3c-4.7,8.2-7.1,30.1-8.4,41.9c-0.3,2.9-0.6,5.2-0.8,6.8c-1.2,8-6,18.2-6.2,18.6
				l-4.3-2.1c0-0.1,4.7-10,5.8-17.2c0.2-1.4,0.5-3.7,0.8-6.6c1.4-13,3.8-34.7,9-43.8C368,361,376,358,381,359.7
				c3.2,1.1,4.8,4,4.3,7.5c-0.4,3-0.3,8-0.2,13.9c0.2,8.4,0.3,18.9-0.9,29.4C382,429,375,453.2,368,466.7z"/>
			<path class="st0" d="M311.7,488.9l0-4.8c-0.3,0-0.5,0.1-0.5,0.1c2.6-1.1,16.5-15.7,23-24.7l3.9,2.8c-3.1,4.3-8.5,10.7-13.8,16.3
				C314.5,488.9,312.8,488.9,311.7,488.9z"/>
			<path class="st0" d="M319.7,436.1c0-0.2,0.5-19.4-1.8-38.7c-2.3-20.5,9-31.7,14.8-33.9c1.7-0.7,3-0.2,3.8,0.2
				c2.4,1.5,2.8,5.1,3.3,10.6c0.3,3.3,0.7,7.1,1.6,11c0.8,3.6,2.2,8.1,3.9,13.3c3.5,10.9,7.8,24.5,8.2,36.5l-4.8,0.1
				c-0.3-11.2-4.5-24.5-7.9-35.1c-1.7-5.3-3.2-9.9-4-13.7c-0.9-4.2-1.3-8.3-1.7-11.6c-0.2-2.5-0.5-5.4-1-6.7
				c-3.4,1.7-13.5,10.3-11.4,28.7c2.2,19.7,1.8,39.1,1.8,39.3L319.7,436.1z"/>
			<path class="st0" d="M286,487.4l-3.1-3.7c8.4-7,22.5-19.2,24.5-22.2l4,2.6C308.4,468.8,288.3,485.5,286,487.4z"/>
		</g>
	</g>
	<path class="st0" d="M277.4,598.4C138,598.4,24.6,467.7,24.6,307.1S138,15.8,277.4,15.8s252.8,130.7,252.8,291.3
		S416.9,598.4,277.4,598.4z M277.4,22.9C142,22.9,31.7,150.4,31.7,307.1S142,591.2,277.4,591.2s245.7-127.5,245.7-284.2
		S412.9,22.9,277.4,22.9z"/>
	<g>
		<path class="st0" d="M104.2,692.8c0.1,1,0.3,2.3,0.7,3.8c0.4,1.5,1.2,2.9,2.5,4.3s3,2.6,5.3,3.6c2.3,1,5.4,1.5,9.2,1.5
			c4.8,0,8.7-0.9,11.6-2.7c2.9-1.8,4.3-4.7,4.3-8.7c0-3.2-0.9-5.7-2.7-7.6s-4.1-3.5-6.9-4.8s-5.8-2.5-9-3.5c-3.2-1-6.2-2.3-9-3.8
			s-5.1-3.3-6.9-5.5s-2.7-5.1-2.7-8.7c0-2.7,0.6-5.2,1.7-7.3s2.7-3.9,4.6-5.3c1.9-1.4,4.1-2.5,6.7-3.2c2.5-0.7,5.2-1.1,8-1.1
			c2.7,0,5.3,0.3,7.7,1s4.7,1.6,6.6,2.8c2,1.2,3.6,2.8,4.9,4.6s2.1,3.8,2.5,6.1H137c-0.5-3.6-2.1-6.2-4.9-7.9s-6.1-2.5-10.1-2.5
			c-2.4,0-4.5,0.3-6.3,0.9c-1.8,0.6-3.4,1.3-4.6,2.3c-1.2,1-2.2,2.1-2.8,3.3c-0.6,1.3-1,2.7-1,4.1c0,2.6,1,4.7,2.8,6.3
			c1.9,1.6,4.3,3,7.1,4.2c2.8,1.2,5.9,2.4,9.3,3.5c3.3,1.1,6.4,2.5,9.2,4.1s5.2,3.6,7.1,6c1.9,2.4,2.8,5.5,2.8,9.3
			c0,2.7-0.5,5.2-1.6,7.5s-2.7,4.2-4.7,5.8c-2,1.6-4.4,2.8-7.3,3.7c-2.8,0.8-6,1.3-9.6,1.3c-3.5,0-6.7-0.4-9.6-1.2s-5.5-2-7.6-3.5
			c-2.2-1.5-3.9-3.3-5.1-5.4c-1.2-2.1-1.9-4.5-2.1-7.1L104.2,692.8L104.2,692.8z"/>
		<path class="st0" d="M207.7,645v5h-33V673h28.3v4.2h-28.3V704h33v5h-41.3v-64L207.7,645L207.7,645z"/>
		<path class="st0" d="M281.8,699.7c-0.8,0.9-2,2-3.5,3.2c-1.5,1.2-3.4,2.4-5.7,3.4c-2.3,1.1-5,2-8,2.7s-6.6,1.1-10.5,1.1
			c-6.2,0-11.5-1-15.9-2.9s-8.1-4.5-11-7.6c-2.9-3.1-5-6.7-6.4-10.8c-1.4-4-2.1-8.2-2.1-12.5c0-4.9,0.9-9.4,2.6-13.4
			c1.7-4,4.1-7.4,7.2-10.2c3.1-2.8,6.8-5,11.2-6.5c4.4-1.5,9.2-2.3,14.5-2.3c3.7,0,6.9,0.4,9.8,1.1c2.9,0.7,5.4,1.7,7.5,3
			s3.9,2.8,5.3,4.6s2.6,3.7,3.5,5.8h-6.8c-0.4-1.3-1.2-2.5-2.2-3.8s-2.4-2.4-4.1-3.3c-1.7-1-3.6-1.8-5.8-2.4
			c-2.2-0.6-4.6-0.9-7.2-0.9c-3.8,0-7.4,0.7-10.6,2.1c-3.3,1.4-6.1,3.3-8.5,5.8s-4.2,5.5-5.5,8.9s-2,7.2-2,11.4
			c0,3.9,0.6,7.7,1.9,11.2c1.2,3.6,3.1,6.8,5.5,9.5c2.4,2.7,5.5,4.9,9.1,6.6c3.7,1.7,7.9,2.5,12.6,2.5c8.5,0,15.9-2.9,22.1-8.8
			L281.8,699.7z"/>
		<path class="st0" d="M319.1,645c4.1,0,7.5,0.6,10.2,1.7c2.7,1.1,4.8,2.5,6.3,4.2c1.5,1.7,2.7,3.5,3.3,5.4c0.6,2,1,3.8,1,5.4
			c0,1.8-0.3,3.7-0.9,5.6c-0.6,1.9-1.6,3.7-2.9,5.3c-1.3,1.7-3,3-5.1,4.1c-2.1,1.1-4.6,1.7-7.5,1.9v0.4l0.9,0.5
			c0.7,0.4,1.4,0.8,1.9,1.4c0.5,0.5,1.2,1.4,2,2.7c0.8,1.2,1.9,2.9,3.3,5.2s3.3,5.2,5.9,8.9c0.8,1.3,1.7,2.4,2.5,3.4
			c0.8,1,1.6,1.9,2.5,2.6c0.8,0.7,1.8,1.2,2.7,1.6s2.1,0.5,3.4,0.5c0.3,0,0.6,0,0.9,0c0.3,0,0.6-0.1,0.9-0.1v3.4
			c-0.8,0.5-1.7,0.8-2.6,0.9s-2,0.2-3.3,0.2c-1.8,0-3.4-0.2-4.7-0.7c-1.3-0.5-2.5-1.1-3.5-2c-1-0.8-2-1.8-2.8-3
			c-0.9-1.2-1.8-2.4-2.7-3.8l-7.2-10.7c-1.1-1.7-2-3.1-2.8-4.3c-0.8-1.2-1.7-2.1-2.6-2.8c-0.9-0.7-1.9-1.2-3.1-1.5s-2.5-0.5-4.3-0.5
			h-4V709h-8.3v-64L319.1,645L319.1,645z M306.6,676.7h9.5c2.4,0,4.6-0.4,6.5-1.3c1.9-0.8,3.4-2,4.7-3.3c1.3-1.4,2.2-2.9,2.9-4.6
			s1-3.3,1-5c0-2-0.3-3.8-1.1-5.4c-0.7-1.7-1.7-3.1-3.1-4.2c-1.3-1.2-3-2.1-4.8-2.8c-1.9-0.7-4-1-6.3-1h-9.3L306.6,676.7
			L306.6,676.7z"/>
		<path class="st0" d="M409,645v5h-33V673h28.3v4.2H376V704h33v5h-41.3v-64L409,645L409,645z"/>
		<path class="st0" d="M441.8,709v-59h-24.5v-5h57.3v5h-24.5v59H441.8z"/>
		<path class="st0" d="M100.9,735.9c0.7-2.1,1.8-4,3.3-5.8c1.5-1.8,3.4-3.2,5.7-4.3c2.3-1.1,5.1-1.7,8.3-1.7c3.3,0,6.1,0.6,8.5,1.7
			s4.4,2.6,6,4.4c1.6,1.8,2.7,3.7,3.5,5.8s1.1,4,1.1,5.9c0,1.2-0.2,2.5-0.5,3.8s-0.9,2.7-1.5,4c-0.7,1.3-1.5,2.6-2.6,3.8
			c-1,1.2-2.3,2.2-3.7,3.2s-3,1.6-4.8,2.2s-3.8,0.8-6,0.8c-3.2,0-6-0.6-8.3-1.7c-2.3-1.2-4.2-2.6-5.7-4.4s-2.6-3.7-3.3-5.8
			c-0.7-2.1-1-4-1-5.9C99.8,739.9,100.2,738,100.9,735.9z M105.7,748.1c0.7,1.9,1.7,3.5,2.9,4.9s2.7,2.4,4.3,3.2
			c1.7,0.8,3.5,1.2,5.4,1.2c1.9,0,3.8-0.4,5.5-1.2c1.7-0.8,3.2-1.8,4.5-3.2s2.3-3,3.1-4.9s1.1-4,1.1-6.3s-0.4-4.4-1.1-6.3
			s-1.8-3.5-3.1-4.9s-2.8-2.4-4.5-3.2c-1.7-0.8-3.5-1.2-5.5-1.2c-2,0-3.8,0.4-5.4,1.2s-3.1,1.8-4.3,3.2s-2.2,3-2.9,4.9s-1,4-1,6.3
			S105,746.2,105.7,748.1z"/>
		<path class="st0" d="M167.8,724.7v2.7h-17.7v12.3h15.2v2.2h-15.2v17h-4.5v-34.3H167.8z"/>
		<path class="st0" d="M200.5,759v-31.6h-13.1v-2.7h30.7v2.7H205V759H200.5z"/>
		<path class="st0" d="M229.4,759H225v-34.3h4.5v15H250v-15h4.5V759H250v-17h-20.5L229.4,759L229.4,759z"/>
		<path class="st0" d="M288.3,724.7v2.7h-17.7v12.3h15.2v2.2h-15.2v14.4h17.7v2.7h-22.2v-34.3L288.3,724.7L288.3,724.7z"/>
		<path class="st0" d="M312.8,759v-34.3h4.5v31.6H335v2.7L312.8,759L312.8,759z"/>
		<path class="st0" d="M340,735.9c0.7-2.1,1.8-4,3.3-5.8c1.5-1.8,3.4-3.2,5.7-4.3c2.3-1.1,5.1-1.7,8.3-1.7c3.3,0,6.1,0.6,8.5,1.7
			s4.4,2.6,6,4.4c1.6,1.8,2.7,3.7,3.5,5.8s1.1,4,1.1,5.9c0,1.2-0.2,2.5-0.5,3.8s-0.8,2.7-1.5,4c-0.7,1.3-1.5,2.6-2.6,3.8
			c-1,1.2-2.3,2.2-3.7,3.2s-3,1.6-4.8,2.2c-1.8,0.5-3.8,0.8-6,0.8c-3.2,0-6-0.6-8.3-1.7s-4.2-2.6-5.7-4.4c-1.5-1.8-2.6-3.7-3.3-5.8
			c-0.7-2.1-1-4-1-5.9C338.9,739.9,339.3,738,340,735.9z M344.8,748.1c0.7,1.9,1.7,3.5,2.9,4.9c1.2,1.4,2.7,2.4,4.3,3.2
			c1.7,0.8,3.5,1.2,5.4,1.2c1.9,0,3.8-0.4,5.5-1.2c1.7-0.8,3.2-1.8,4.5-3.2c1.3-1.4,2.3-3,3.1-4.9s1.1-4,1.1-6.3s-0.4-4.4-1.1-6.3
			s-1.8-3.5-3.1-4.9s-2.8-2.4-4.5-3.2c-1.7-0.8-3.5-1.2-5.5-1.2c-2,0-3.8,0.4-5.4,1.2s-3.1,1.8-4.3,3.2s-2.2,3-2.9,4.9s-1,4-1,6.3
			C343.7,744.1,344.1,746.2,344.8,748.1z"/>
		<path class="st0" d="M393,759v-31.6h-13.1v-2.7h30.7v2.7h-13.1V759H393z"/>
		<path class="st0" d="M419.9,724.7V747c0,0.7,0,1.3,0,2c0,0.7,0.2,1.3,0.3,1.9c0.2,0.6,0.5,1.3,0.9,1.9c0.4,0.7,1,1.3,1.7,2
			c1,0.8,2,1.5,3,1.9s2.3,0.6,3.7,0.6c1.6,0,3.1-0.2,4.6-0.7s2.8-1.3,4-2.6c0.7-0.7,1.2-1.4,1.5-2.2c0.3-0.7,0.6-1.5,0.8-2.2
			c0.2-0.7,0.3-1.5,0.3-2.2c0-0.7,0-1.5,0-2.2v-20.7h2.2V747c0,1.7-0.3,3.4-0.8,4.9s-1.4,2.8-2.5,4c-1.1,1.1-2.5,2-4.1,2.7
			c-1.6,0.7-3.5,1-5.6,1c-3.3,0-6-0.5-7.9-1.4c-1.9-0.9-3.4-2.1-4.4-3.5c-1-1.4-1.6-2.9-1.9-4.5s-0.4-3.1-0.4-4.4v-21.1L419.9,724.7
			L419.9,724.7z"/>
		<path class="st0" d="M452,750.3c0,0.6,0.2,1.2,0.4,2c0.2,0.8,0.7,1.6,1.3,2.3s1.6,1.4,2.8,1.9c1.2,0.5,2.9,0.8,5,0.8
			c2.6,0,4.7-0.5,6.2-1.5s2.3-2.5,2.3-4.7c0-1.7-0.5-3-1.5-4.1c-1-1-2.2-1.9-3.7-2.6s-3.1-1.3-4.8-1.9c-1.7-0.6-3.3-1.2-4.8-2
			c-1.5-0.8-2.7-1.8-3.7-2.9c-1-1.2-1.5-2.7-1.5-4.7c0-1.5,0.3-2.8,0.9-3.9c0.6-1.1,1.4-2.1,2.5-2.8s2.2-1.3,3.6-1.7
			c1.4-0.4,2.8-0.6,4.3-0.6c1.4,0,2.8,0.2,4.2,0.5s2.5,0.8,3.6,1.5s1.9,1.5,2.6,2.5s1.1,2,1.3,3.3h-3.3c-0.3-1.9-1.1-3.3-2.6-4.2
			c-1.5-0.9-3.3-1.3-5.4-1.3c-1.3,0-2.4,0.2-3.4,0.5c-1,0.3-1.8,0.7-2.5,1.2c-0.7,0.5-1.2,1.1-1.5,1.8s-0.5,1.4-0.5,2.2
			c0,1.4,0.5,2.5,1.5,3.4c1,0.8,2.3,1.6,3.8,2.2c1.5,0.7,3.2,1.3,5,1.9c1.8,0.6,3.4,1.3,5,2.2c1.5,0.9,2.8,1.9,3.8,3.2s1.5,3,1.5,5
			c0,1.5-0.3,2.8-0.9,4s-1.4,2.2-2.5,3.1c-1.1,0.8-2.4,1.5-3.9,2s-3.2,0.7-5.1,0.7c-1.9,0-3.6-0.2-5.2-0.7c-1.6-0.4-2.9-1.1-4.1-1.9
			s-2.1-1.8-2.8-2.9c-0.7-1.1-1-2.4-1.1-3.8L452,750.3L452,750.3z"/>
	</g>
	<g>
		<path class="st0" d="M42.4,693h-8.2v8.3h9.6v2.5H31.2v-23.3h12.4v2.5h-9.4v7.5h8.2L42.4,693L42.4,693z"/>
		<path class="st0" d="M57.7,697.9c0-1.2-0.3-2-0.9-2.7s-1.8-1.2-3.4-1.8s-2.9-1.2-3.8-1.8c-0.9-0.7-1.5-1.4-2-2.2
			c-0.4-0.8-0.6-1.8-0.6-2.8c0-1.8,0.6-3.4,1.9-4.6s2.9-1.8,4.8-1.8c1.4,0,2.6,0.3,3.6,0.9s1.9,1.5,2.5,2.5c0.6,1.1,0.9,2.3,0.9,3.6
			h-2.9c0-1.4-0.4-2.5-1-3.3c-0.7-0.8-1.7-1.2-3-1.2c-1.2,0-2.1,0.3-2.8,1s-1,1.6-1,2.8c0,1,0.4,1.8,1.1,2.5
			c0.7,0.7,1.8,1.3,3.3,1.8c2.3,0.8,3.9,1.7,4.9,2.8s1.5,2.6,1.5,4.3c0,1.9-0.6,3.4-1.8,4.5c-1.2,1.1-2.9,1.7-5,1.7
			c-1.4,0-2.6-0.3-3.8-0.9c-1.1-0.6-2-1.4-2.7-2.5c-0.7-1.1-1-2.3-1-3.7h2.9c0,1.4,0.4,2.6,1.2,3.4s1.9,1.2,3.3,1.2
			c1.3,0,2.3-0.3,2.9-1C57.4,700,57.7,699.1,57.7,697.9z"/>
		<path class="st0" d="M43.6,713.2h-6.1V734h-2.9v-20.8h-6.1v-2.5h15.2L43.6,713.2L43.6,713.2z"/>
		<path class="st0" d="M47,734v-23.3h5.5c2.7,0,4.8,0.8,6.3,2.5c1.5,1.7,2.3,4.1,2.3,7.2v3.9c0,3.1-0.8,5.5-2.3,7.2
			s-3.7,2.5-6.6,2.5L47,734L47,734z M50,713.2v18.3h2.4c2.1,0,3.6-0.6,4.5-1.8s1.4-2.9,1.5-5.2v-4.1c0-2.5-0.5-4.3-1.4-5.4
			s-2.4-1.7-4.3-1.7L50,713.2L50,713.2z"/>
	</g>
	<g>
		<path class="st0" d="M511.5,701.4h-13.1v-2.1l6.7-8.8c1-1.4,1.7-2.5,2.1-3.3c0.4-0.9,0.6-1.8,0.6-2.8c0-1.2-0.3-2.2-0.9-3
			s-1.3-1.2-2.3-1.2c-1.2,0-2.1,0.4-2.8,1.2s-1,2-1,3.5H498c0-2.2,0.6-3.9,1.8-5.2c1.2-1.3,2.8-2,4.8-2c1.9,0,3.3,0.6,4.4,1.7
			c1.1,1.1,1.6,2.7,1.6,4.6c0,2.3-1.2,5.1-3.6,8.2l-5.2,6.8h9.7L511.5,701.4L511.5,701.4z"/>
		<path class="st0" d="M527.2,691.4c0,3.5-0.5,6-1.5,7.7c-1,1.7-2.6,2.6-4.7,2.6c-2.1,0-3.7-0.8-4.7-2.5c-1-1.6-1.6-4.1-1.6-7.4v-4
			c0-3.4,0.5-6,1.5-7.7c1-1.7,2.6-2.5,4.7-2.5c2.1,0,3.7,0.8,4.7,2.4c1,1.6,1.5,4,1.6,7.3L527.2,691.4L527.2,691.4z M524.3,687.3
			c0-2.5-0.3-4.3-0.8-5.5c-0.5-1.2-1.4-1.8-2.6-1.8c-1.2,0-2,0.6-2.6,1.7c-0.5,1.2-0.8,2.9-0.8,5.2v4.8c0,2.5,0.3,4.3,0.8,5.6
			c0.6,1.2,1.4,1.9,2.6,1.9c1.2,0,2-0.6,2.6-1.8s0.8-3,0.8-5.4L524.3,687.3L524.3,687.3z"/>
		<path class="st0" d="M506.9,731.7H504v-19.8l-4.9,2.2v-2.7l7.3-3.2h0.5L506.9,731.7L506.9,731.7z"/>
		<path class="st0" d="M524,721.7c-1.1,1.5-2.5,2.2-4,2.2c-1.7,0-3.1-0.7-4.1-2.2s-1.5-3.3-1.5-5.7c0-2.5,0.5-4.4,1.7-5.9
			c1.1-1.5,2.6-2.2,4.5-2.2c2,0,3.5,0.9,4.6,2.6s1.7,4.1,1.7,7.1v0.9c0,2.6-0.2,4.7-0.6,6.3c-0.4,1.6-1,2.9-1.7,3.9
			c-0.8,1-1.7,1.7-2.9,2.2s-2.7,0.8-4.4,0.8v-2.5h0.5c2,0,3.5-0.7,4.6-1.8C523.4,726.1,523.9,724.2,524,721.7z M520.5,721.4
			c0.7,0,1.4-0.3,2-0.9s1.2-1.3,1.5-2.3V717c0-1.9-0.3-3.5-1-4.8c-0.7-1.2-1.5-1.8-2.4-1.8c-1,0-1.8,0.5-2.5,1.5
			c-0.6,1-0.9,2.3-0.9,4s0.3,2.9,0.9,4S519.5,721.4,520.5,721.4z"/>
	</g>
</g>
</svg>
