<svg id="Layer_1" data-name="Layer 1" xmlns="http://www.w3.org/2000/svg" width="163.31" height="173.63" viewBox="0 0 163.31 173.63">
  <defs>
    <style>
      .cls-1 {
        font-size: 12px;
        font-family: ArialMT, Arial;
      }

      .cls-2 {
        font-size: 11.85px;
        font-family: MyriadPro-Regular, Myriad Pro;
      }

      .cls-2, .cls-3 {
        fill: #7e2d00;
      }
    </style>
  </defs>
  <text class="cls-1" y="10.3"> </text>
  <text class="cls-2" transform="translate(82.91 26.82) rotate(0.93)">E</text>
  <text class="cls-2" transform="translate(88.58 26.84) rotate(6.18)">N</text>
  <text class="cls-2" transform="translate(96.14 27.7) rotate(11.77)">T</text>
  <text class="cls-2" transform="translate(101.75 28.86) rotate(16.57)">E</text>
  <text class="cls-2" transform="translate(107.18 30.46) rotate(21.56)">R</text>
  <text class="cls-2" transform="translate(112.97 32.81) rotate(25.2)"> </text>
  <text class="cls-2" transform="translate(115.18 33.84) rotate(27.6)">•</text>
  <text class="cls-2" transform="translate(118.07 35.35) rotate(29.99)"> </text>
  <text class="cls-2" transform="translate(120.14 36.49) rotate(33.35)">E</text>
  <text class="cls-2" transform="translate(124.9 39.56) rotate(38.89)">N</text>
  <text class="cls-2" transform="translate(130.8 44.36) rotate(44.42)">T</text>
  <text class="cls-2" transform="matrix(0.65, 0.76, -0.76, 0.65, 134.89, 48.37)">E</text>
  <text class="cls-2" transform="matrix(0.59, 0.81, -0.81, 0.59, 138.61, 52.64)">R</text>
  <text class="cls-2" transform="translate(142.23 57.74) rotate(57.72)"> </text>
  <text class="cls-2" transform="matrix(0.5, 0.87, -0.87, 0.5, 143.53, 59.79)">•</text>
  <text class="cls-2" transform="translate(145.15 62.62) rotate(62.49)"> </text>
  <text class="cls-2" transform="matrix(0.41, 0.91, -0.91, 0.41, 146.31, 64.71)">E</text>
  <text class="cls-2" transform="translate(148.67 69.85) rotate(71.48)">N</text>
  <text class="cls-2" transform="translate(151.04 77.05) rotate(77.07)">T</text>
  <text class="cls-2" transform="matrix(0.14, 0.99, -0.99, 0.14, 152.33, 82.63)">E</text>
  <text class="cls-2" transform="matrix(0.06, 1, -1, 0.06, 153.15, 88.24)">R</text>
  <text class="cls-2" transform="translate(153.45 94.46) rotate(90.93)"> </text>
  <text class="cls-2" transform="matrix(-0.05, 1, -1, -0.05, 153.44, 96.93)">•</text>
  <text class="cls-2" transform="translate(153.27 100.18) rotate(95.08)"> </text>
  <text class="cls-2" transform="translate(153.11 102.57) rotate(98.46)">E</text>
  <text class="cls-2" transform="translate(152.34 108.16) rotate(104.03)">N</text>
  <text class="cls-2" transform="translate(150.47 115.51) rotate(109.62)">T</text>
  <text class="cls-2" transform="translate(148.54 120.93) rotate(114.44)">E</text>
  <text class="cls-2" transform="translate(146.22 126.09) rotate(119.42)">R</text>
  <text class="cls-2" transform="matrix(-0.55, 0.84, -0.84, -0.55, 143.1, 131.5)"> </text>
  <text class="cls-2" transform="translate(141.79 133.53) rotate(125.4)">•</text>
  <text class="cls-2" transform="matrix(-0.61, 0.79, -0.79, -0.61, 139.89, 136.19)"> </text>
  <text class="cls-2" transform="translate(138.46 138.12) rotate(131.16)">E</text>
  <text class="cls-2" transform="matrix(-0.73, 0.69, -0.69, -0.73, 134.79, 142.41)">N</text>
  <text class="cls-2" transform="matrix(-0.79, 0.61, -0.61, -0.79, 129.23, 147.6)">T</text>
  <text class="cls-2" transform="translate(124.72 151.11) rotate(146.95)">E</text>
  <text class="cls-2" transform="translate(119.98 154.22) rotate(151.92)">R</text>
  <text class="cls-2" transform="translate(114.45 157.1) rotate(155.54)"> </text>
  <text class="cls-2" transform="translate(112.22 158.13) rotate(157.95)">•</text>
  <text class="cls-2" transform="translate(109.22 159.33) rotate(160.33)"> </text>
  <text class="cls-2" transform="translate(106.96 160.2) rotate(163.77)">E</text>
  <text class="cls-2" transform="matrix(-0.98, 0.19, -0.19, -0.98, 101.58, 161.83)">N</text>
  <text class="cls-2" transform="translate(94.09 163.2) rotate(174.9)">T</text>
  <text class="cls-2" transform="translate(88.36 163.68) rotate(179.07)">E</text>
  <text class="cls-2" transform="translate(82.72 163.77) rotate(-175.49)">R</text>
  <text class="cls-2" transform="translate(76.49 163.22) rotate(-171.88)"> </text>
  <text class="cls-2" transform="matrix(-0.98, -0.18, 0.18, -0.98, 74.08, 162.89)">•</text>
  <text class="cls-2" transform="matrix(-0.97, -0.22, 0.22, -0.97, 70.87, 162.28)"> </text>
  <text class="cls-2" transform="translate(68.53 161.8) rotate(-163.68)">E</text>
  <text class="cls-2" transform="matrix(-0.93, -0.37, 0.37, -0.93, 63.11, 160.28)">N</text>
  <text class="cls-2" transform="matrix(-0.89, -0.46, 0.46, -0.89, 56.07, 157.4)">T</text>
  <text class="cls-2" transform="translate(50.97 154.76) rotate(-147.72)">E</text>
  <text class="cls-2" transform="matrix(-0.8, -0.6, 0.6, -0.8, 46.18, 151.75)">R</text>
  <text class="cls-2" transform="matrix(-0.76, -0.65, 0.65, -0.76, 41.24, 147.93)"> </text>
  <text class="cls-2" transform="translate(39.39 146.35) rotate(-136.81)">•</text>
  <text class="cls-2" transform="translate(37.02 144.11) rotate(-134.44)"> </text>
  <text class="cls-2" transform="translate(35.3 142.43) rotate(-131.07)">E</text>
  <text class="cls-2" transform="translate(31.55 138.21) rotate(-125.55)">N</text>
  <text class="cls-2" transform="matrix(-0.5, -0.87, 0.87, -0.5, 27.16, 132)">T</text>
  <text class="cls-2" transform="translate(24.3 127.06) rotate(-115.23)">E</text>
  <text class="cls-2" transform="translate(21.87 121.94) rotate(-110.22)">R</text>
  <text class="cls-2" transform="translate(19.76 116.05) rotate(-106.57)"> </text>
  <text class="cls-2" transform="translate(19.06 113.74) rotate(-104.18)">•</text>
  <text class="cls-2" transform="matrix(-0.2, -0.98, 0.98, -0.2, 18.27, 110.58)"> </text>
  <text class="cls-2" transform="translate(17.72 108.23) rotate(-98.37)">E</text>
  <text class="cls-2" transform="translate(16.85 102.66) rotate(-92.86)">N</text>
  <text class="cls-2" transform="translate(16.5 95.05) rotate(-87.37)">T</text>
  <text class="cls-2" transform="translate(16.76 89.34) rotate(-82.64)">E</text>
  <text class="cls-2" transform="translate(17.46 83.73) rotate(-77.67)">R</text>
  <text class="cls-2" transform="translate(18.86 77.62) rotate(-74.01)"> </text>
  <text class="cls-2" transform="translate(19.52 75.28) rotate(-71.61)">•</text>
  <text class="cls-2" transform="translate(20.55 72.21) rotate(-69.23)"> </text>
  <text class="cls-2" transform="matrix(0.41, -0.91, 0.91, 0.41, 21.35, 69.94)">E</text>
  <text class="cls-2" transform="translate(23.61 64.78) rotate(-60.25)">N</text>
  <text class="cls-2" transform="translate(27.41 58.19) rotate(-54.69)">T</text>
  <text class="cls-2" transform="translate(30.73 53.5) rotate(-49.93)">E</text>
  <text class="cls-2" transform="translate(34.35 49.16) rotate(-45)">R</text>
  <text class="cls-2" transform="matrix(0.75, -0.66, 0.66, 0.75, 38.81, 44.79)"> </text>
  <text class="cls-2" transform="matrix(0.78, -0.63, 0.63, 0.78, 40.63, 43.17)">•</text>
  <text class="cls-2" transform="matrix(0.8, -0.6, 0.6, 0.8, 43.17, 41.12)"> </text>
  <text class="cls-2" transform="translate(45.05 39.65) rotate(-33.29)">E</text>
  <text class="cls-2" transform="matrix(0.89, -0.47, 0.47, 0.89, 49.75, 36.5)">N</text>
  <text class="cls-2" transform="translate(56.5 32.99) rotate(-22.14)">T</text>
  <text class="cls-2" transform="translate(61.79 30.83) rotate(-17.34)">E</text>
  <text class="cls-2" transform="translate(67.18 29.13) rotate(-12.35)">R</text>
  <text class="cls-2" transform="translate(73.31 27.85) rotate(-8.71)"> </text>
  <text class="cls-2" transform="matrix(0.99, -0.11, 0.11, 0.99, 75.7, 27.47)">•</text>
  <text class="cls-2" transform="matrix(1, -0.07, 0.07, 1, 78.94, 27.12)"> </text>
  <circle class="cls-3" cx="86.21" cy="95" r="6.07"/>
</svg>
